<svg width="100" height="100" viewBox="0 0 100 100" fill="none" xmlns="http://www.w3.org/2000/svg">
<g clip-path="url(#clip0_349_145)">
<rect width="100" height="100" rx="50" fill="white"/>
<g clip-path="url(#clip1_349_145)">
<rect x="-6" width="111" height="111" rx="13.5918" fill="white"/>
<ellipse cx="49.5002" cy="95.426" rx="43.6071" ry="45.5893" fill="#FFC738"/>
<path d="M6.62637 111L6.10694 109.014C6.06104 108.839 6.10198 108.652 6.21704 108.511L6.50286 108.163C6.64209 107.993 6.67076 107.759 6.57642 107.56L6.24285 106.86C6.20919 106.789 6.19056 106.712 6.18814 106.634L6.08013 103.136C6.0788 103.093 6.08238 103.05 6.09079 103.008L6.61077 100.399C6.62112 100.347 6.62499 100.294 6.61685 100.242C6.54616 99.7878 6.21082 99.3549 6.1918 98.8995C6.17169 98.4176 6.07813 97.9297 6.07813 97.4469C6.07813 96.964 6.71187 96.4983 6.73098 96.0155C6.75009 95.5326 5.99263 95.0075 6.02985 94.5247C6.06707 94.0418 5.97855 93.5338 6.03387 93.054C6.0892 92.5742 5.98861 92.0521 6.06204 91.5743C6.13547 91.0965 7.37981 90.8208 7.47135 90.345C7.56289 89.8692 7.69466 89.4256 7.8033 88.9538C7.91194 88.482 7.52466 87.9016 7.64839 87.4339C7.77212 86.9661 8.2268 86.602 8.36662 86.1392C8.50645 85.6765 8.15236 85.0619 8.30727 84.6032C8.46219 84.1445 8.55574 83.6606 8.72473 83.208C8.89373 82.7553 9.85942 82.6235 10.0435 82.1759C10.2276 81.7282 9.2619 80.7917 9.46007 80.3491C9.65824 79.9065 10.7959 79.9015 11.0062 79.4659C11.2164 79.0303 11.5615 78.6803 11.7838 78.2507C12.0061 77.8212 11.7405 77.1402 11.9759 76.7177C12.2113 76.2952 12.333 75.8063 12.5795 75.3909C12.8259 74.9754 13.5995 74.8889 13.858 74.4805C14.1165 74.0721 13.3953 73.0219 13.6649 72.6206C13.9344 72.2192 14.2704 71.843 14.5511 71.4497C14.8317 71.0563 15.2653 70.7566 15.556 70.3703C15.8467 69.984 16.9603 70.2375 17.261 69.8603C17.5618 69.4831 17.1776 68.5486 17.4884 68.1784C17.7942 67.8152 18.0396 67.3887 18.3545 67.0336C18.6694 66.6785 19.464 66.758 19.7879 66.41C20.1119 66.0619 20.4317 65.7219 20.7647 65.3829C21.0977 65.0439 20.7768 64.04 21.1188 63.709C21.4598 63.3791 22.2997 63.5652 22.6488 63.2443C22.9979 62.9234 23.2081 62.4426 23.5662 62.1307C23.9243 61.8189 24.3448 61.5755 24.711 61.2727C25.0771 60.9699 25.729 61.0292 26.1032 60.7365C26.4774 60.4438 26.4955 59.6873 26.8767 59.4047C27.258 59.122 27.7871 59.0385 28.1764 58.7659C28.5657 58.4933 28.8986 58.1382 29.295 57.8756C29.6913 57.6131 29.8875 57.0266 30.2909 56.7752C30.6942 56.5237 30.998 56.076 31.4074 55.8366C31.8168 55.5972 32.357 55.553 32.7735 55.3246C33.1899 55.0963 33.6899 55.0007 34.1124 54.7844C34.5349 54.5682 35.1485 54.7301 35.577 54.5259C36.0055 54.3217 36.4793 54.2261 36.9139 54.034C37.3485 53.8419 37.8544 53.8419 38.294 53.6628C38.7336 53.4838 39.0877 53.1065 39.5323 52.9406C39.9769 52.7746 40.3461 52.3984 40.7968 52.2475C41.2474 52.0966 41.5432 51.4286 41.9979 51.2918C42.4525 51.155 43.0219 51.3723 43.4806 51.2496C43.9393 51.1269 44.4765 51.3069 44.9392 51.1983C45.4019 51.0896 45.8315 50.8291 46.2972 50.7366C46.7629 50.644 47.2176 50.464 47.6864 50.3865C48.1551 50.309 48.6028 50.0224 49.0746 49.961C49.5463 49.8996 50.0825 50.3835 50.5553 50.3382C51.0281 50.293 51.5049 50.3895 51.9787 50.3614C52.4525 50.3332 52.9082 49.9499 53.382 49.9389C53.8557 49.9278 54.3245 50.5525 54.7993 50.5595C55.2741 50.5666 55.7318 50.5183 56.2056 50.5434C56.6794 50.5686 57.1481 50.4579 57.6209 50.5002C58.0937 50.5424 58.6399 49.9016 59.1107 49.96C59.5815 50.0183 60.008 50.4348 60.4768 50.5102C60.9455 50.5857 61.4867 50.297 61.9525 50.3895C62.4182 50.4821 62.8729 50.6792 63.3346 50.7889C63.7963 50.8985 64.0297 51.8803 64.4874 52.006C64.9451 52.1318 65.6 51.5564 66.0526 51.6982C66.5053 51.8401 67.0244 51.8109 67.472 51.9688C67.9196 52.1268 68.4618 52.0795 68.9024 52.2535C69.343 52.4275 69.5663 53.1538 70.0009 53.3439C70.4355 53.5341 70.6427 54.197 71.0692 54.4022C71.4957 54.6074 72.1626 54.3217 72.5811 54.543C73.0006 54.7643 73.3054 55.1878 73.7158 55.4252C74.1262 55.6626 74.6493 55.7099 75.0497 55.9624C75.45 56.2149 75.5345 56.9351 75.9258 57.2027C76.3171 57.4703 76.9116 57.433 77.2919 57.7167C77.6721 58.0004 78.2153 58.0738 78.5835 58.3726C78.9517 58.6713 78.9315 59.4208 79.2866 59.7346C79.6417 60.0485 80.6175 59.6883 80.9605 60.0163C81.3035 60.3442 80.8348 61.4789 81.1627 61.8209C81.4906 62.1629 81.9926 62.3148 82.3054 62.6719C82.6183 63.029 82.733 63.5219 83.0307 63.8921C83.3285 64.2623 83.7741 64.4876 84.0547 64.8699C84.3354 65.2521 85.3413 65.1294 85.6039 65.5257C85.8664 65.9221 86.1189 66.3476 86.3633 66.755C86.6078 67.1624 85.8674 68.1271 86.0928 68.5425C86.3181 68.958 86.48 69.3784 86.6883 69.803C86.8965 70.2275 88.1107 70.1802 88.3018 70.6137C88.4929 71.0473 88.4014 71.6106 88.5754 72.0512C88.7494 72.4918 88.4567 73.1024 88.6146 73.549C88.7726 73.9957 89.0341 74.396 89.1759 74.8487C89.3178 75.3014 89.6698 75.6856 89.7966 76.1433C89.9233 76.601 90.4766 76.9521 90.5883 77.4128C90.6999 77.8735 90.4414 78.4248 90.539 78.8895C90.6365 79.3542 90.6124 79.8401 90.6969 80.3069C90.7814 80.7736 90.4726 81.2977 90.545 81.7665C90.6174 82.2352 91.3709 82.6034 91.4312 83.0742C91.4916 83.5449 91.3065 84.0449 91.3558 84.5167C91.4051 84.9885 90.8257 85.5115 90.8649 85.9843C90.9041 86.4571 91.9573 86.8524 91.9865 87.3252C92.0157 87.798 91.2844 88.312 91.3055 88.7858C91.3266 89.2596 92.2621 89.7022 92.2752 90.176C92.2883 90.6498 91.5952 91.1397 91.6002 91.6135C91.6052 92.0873 91.4483 92.5591 91.4463 93.0329C91.4443 93.5067 92.1796 93.9895 92.1716 94.4633C92.1635 94.9371 91.9805 95.4119 91.9674 95.8847C91.9543 96.3575 92.1082 96.8423 92.0891 97.3151C92.0737 97.6962 91.9576 98.0767 91.9005 98.457C91.8736 98.6364 91.911 98.8176 91.9862 98.9827L92.0072 99.029C92.1136 99.2629 92.1374 99.526 92.0745 99.7751L91.7444 101.084C91.654 101.442 91.7441 101.822 91.9858 102.102L92.4651 102.656C92.6918 102.918 92.7859 103.27 92.7205 103.61L92.224 106.196C92.1896 106.376 92.199 106.561 92.2516 106.736L92.8809 108.831C93.017 109.284 92.8572 109.774 92.4801 110.059L90.8649 111.283" stroke="black" stroke-width="7.0415" stroke-miterlimit="10" stroke-linecap="round"/>
<path d="M42.0607 38.7151C41.7438 38.3221 41.0359 38.2335 40.6979 37.8595C40.3598 37.4855 39.7972 37.3318 39.4401 36.9765C39.0829 36.6211 38.7297 36.2765 38.3542 35.9406C37.9787 35.6046 37.9053 34.8835 37.5137 34.568C37.122 34.2526 36.5304 34.2053 36.1239 33.9105C35.7175 33.6157 35.4938 33.0028 35.074 32.7303C34.6542 32.4578 33.844 32.9146 33.4115 32.6652C32.9789 32.4158 32.7559 31.7439 32.3121 31.5178C31.8683 31.2918 31.5351 30.7547 31.0822 30.553C30.6292 30.3513 29.9588 30.7977 29.4981 30.6206C29.0375 30.4434 28.6691 29.9454 28.2021 29.793C27.7352 29.6406 27.276 29.4176 26.8028 29.2913C26.3295 29.1651 25.771 29.6815 25.2935 29.5824C24.8161 29.4834 24.4154 28.601 23.9351 28.5293C23.4549 28.4577 22.9577 28.2566 22.4768 28.2133C21.9959 28.1701 21.4794 27.9642 21 27.9504" stroke="black" stroke-width="7.0415" stroke-miterlimit="10" stroke-linecap="round"/>
<path d="M57.6975 36.7551C57.608 36.1856 57.6971 35.4405 57.8504 34.8851C58.0037 34.3297 58.7297 33.9608 58.9691 33.4479C59.205 32.9418 59.9926 32.7241 60.2486 32.2276C60.5046 31.7312 59.9713 30.8216 60.2452 30.3357C60.519 29.8498 60.5037 29.1761 60.7965 28.7003C61.0894 28.2245 61.4663 27.7802 61.7765 27.3166C62.0866 26.853 62.8236 26.6761 63.1527 26.2253C63.4817 25.7744 63.8195 25.3316 64.1647 24.8934C64.51 24.4552 64.98 24.123 65.3419 23.6986C65.7037 23.2742 65.3959 22.2411 65.7744 21.8304C66.1529 21.4198 66.9776 21.4142 67.3717 21.0178C67.7658 20.6215 68.4243 20.5031 68.8334 20.1226C68.9646 20.0011 69.138 19.5002 69.039 19.3511C68.94 19.202 68.4647 19.2776 68.6436 19.2579" stroke="black" stroke-width="7.0415" stroke-miterlimit="10" stroke-linecap="round"/>
<path d="M48.8211 69.0064C48.8211 69.4892 49.0846 70.1592 48.9438 70.5947C48.803 71.0303 48.478 71.2335 48.2034 71.6097C47.9288 71.9859 47.7326 72.4899 47.3524 72.7665C46.9722 73.0432 46.4823 73.1991 46.0306 73.3459C45.579 73.4928 45.1042 73.1136 44.6203 73.1136C44.1364 73.1136 43.6043 73.6175 43.1687 73.4757C42.7171 73.3288 42.3781 72.8862 42.0019 72.6116C41.6256 72.337 41.2072 72.0684 40.9306 71.6882C40.6539 71.3079 40.0594 70.989 39.9126 70.5364C39.7657 70.0837 39.4458 69.4902 39.4458 69.0064C39.4458 68.5225 39.7737 67.9129 39.9146 67.4774C40.0554 67.0418 40.4658 66.562 40.7394 66.1857C41.013 65.8095 41.6659 65.7381 42.0461 65.4615C42.4264 65.1848 42.8489 65.0903 43.3005 64.9434C43.7522 64.7965 44.1375 64.9324 44.6203 64.9324C45.1031 64.9324 45.5126 64.7754 45.9491 64.9173C46.3857 65.0591 46.9078 65.0671 47.283 65.3408C47.6582 65.6144 48.4499 65.6425 48.7265 66.0218C49.0031 66.401 48.9538 67.0981 49.1007 67.5498C49.2476 68.0014 48.8201 68.5225 48.8201 69.0054L48.8211 69.0064Z" fill="black"/>
<path d="M67.7437 69.0064C67.7437 69.4892 67.6643 69.8876 67.5224 70.3232C67.3806 70.7587 67.3393 71.2426 67.0647 71.6188C66.7901 71.995 66.3898 72.2284 66.0105 72.505C65.6313 72.7816 65.3154 73.1518 64.8638 73.2987C64.4121 73.4456 63.9524 73.5451 63.4695 73.5451C62.9867 73.5451 62.5964 73.177 62.1608 73.0351C61.7253 72.8933 61.0925 73.0693 60.7173 72.7957C60.3421 72.5221 60.2556 71.9226 59.979 71.5433C59.7023 71.1641 59.5635 70.7758 59.4166 70.3242C59.2698 69.8725 59.0103 69.4902 59.0103 69.0074C59.0103 68.5246 59.0384 68.0498 59.1803 67.6132C59.3221 67.1766 59.7255 66.8618 59.9991 66.4855C60.2727 66.1093 60.321 65.4726 60.7012 65.1959C61.0815 64.9193 61.5693 64.694 62.021 64.5471C62.4727 64.4002 62.9867 64.3801 63.4705 64.3801C63.9544 64.3801 64.3507 64.8157 64.7863 64.9575C65.2219 65.0994 65.7832 65.032 66.1594 65.3066C66.5356 65.5812 66.9219 65.9192 67.1985 66.2994C67.4752 66.6797 67.4892 67.2028 67.6361 67.6544C67.783 68.1061 67.7457 68.5246 67.7457 69.0074L67.7437 69.0064Z" fill="black"/>
<path d="M69.0001 88.9356C68.9485 88.4829 68.1264 87.4327 68 87C67.8736 86.5673 67.194 85.9094 67 85.5C66.806 85.0906 66.5132 85.3578 66.2618 84.9794C66.0105 84.6011 65.5348 84.3494 65.236 84.0077C64.9372 83.666 64.4492 83.5041 64.111 83.2021C63.7729 82.9001 63.1108 83.0723 62.7397 82.8145C62.3687 82.5568 62.213 82.034 61.8149 81.8231C61.4168 81.6121 61.1391 81.1471 60.72 80.9782C60.3008 80.8093 59.8186 80.8167 59.384 80.6873C58.9494 80.558 58.4993 80.5453 58.0551 80.454C57.611 80.3626 57.1525 80.5094 56.7018 80.4521C56.2534 80.3952 55.861 79.8172 55.4092 79.7904C54.9573 79.7636 54.4964 79.6173 54.0435 79.6179C53.5906 79.6184 53.1416 79.9949 52.6911 80.0198C52.2413 80.0435 51.7337 79.4547 51.2845 79.5001C50.8353 79.5455 50.3723 79.6674 49.9269 79.7347C49.4815 79.802 49.0421 80.0239 48.6014 80.1128C48.1608 80.2017 47.8767 80.9797 47.4403 81.0925C47.004 81.2052 46.4845 80.9883 46.0542 81.1234C45.6238 81.2585 45.3336 81.7611 44.9115 81.919C44.4893 82.0769 44.0552 82.1516 43.6428 82.3339C43.1969 82.5315 42.3624 81.9397 41.9302 82.1649C41.4979 82.39 41.4201 83.2773 41.0032 83.5286C40.5863 83.7799 40.2929 84.1969 39.891 84.4733C39.4892 84.7497 39.2585 85.2104 38.8747 85.5111C38.4908 85.8118 37.7553 85.6632 37.3908 85.9858C37.0263 86.3084 36.3053 86.2797 35.9614 86.6249C35.6176 86.9701 35.6779 87.7163 35.3561 88.0816C35.0343 88.4469 34.5481 88.6845 34.2491 89.0687C33.95 89.4529 33.8463 89.9869 33.572 90.3894" stroke="black" stroke-width="7.0415" stroke-miterlimit="10" stroke-linecap="round"/>
</g>
</g>
<defs>
<clipPath id="clip0_349_145">
<rect width="100" height="100" rx="50" fill="white"/>
</clipPath>
<clipPath id="clip1_349_145">
<rect x="-6" width="111" height="111" rx="13.5918" fill="white"/>
</clipPath>
</defs>
</svg>
